<?xml version="1.0" encoding="UTF-8"?>
<svg width="202px" height="97px" viewBox="0 0 202 97" version="1.1" xmlns="http://www.w3.org/2000/svg" xmlns:xlink="http://www.w3.org/1999/xlink">
    <!-- Generator: Sketch 61.2 (89653) - https://sketch.com -->
    <title>Group 5</title>
    <desc>Created with Sketch.</desc>
    <g id="Page-1" stroke="none" stroke-width="1" fill="none" fill-rule="evenodd">
        <g id="Desktop-HD-Copy-25" transform="translate(-618.000000, -589.000000)">
            <g id="Group-Copy" transform="translate(618.000000, 590.000000)">
                <g id="Group-5">
                    <g id="Group-7">
                        <text id="gebruik-je-pijltjest" font-family="Helvetica" font-size="18" font-weight="normal" line-spacing="26" fill="#343988">
                            <tspan x="5.94433594" y="65">gebruik je pijltjestoetsen</tspan>
                            <tspan x="34.4560547" y="91">om rond te lopen</tspan>
                        </text>
                        <g id="Group-3" transform="translate(32.000000, 0.000000)" fill="#FFDDE1" stroke="#343988" stroke-width="2">
                            <g id="Group-3-Copy">
                                <g id="Group-2">
                                    <rect id="Rectangle-Copy-4" x="0" y="5.88835125" width="40" height="33.8605094" rx="5"></rect>
                                    <rect id="Rectangle-Copy-5" x="0" y="0" width="40" height="33.8605094" rx="5"></rect>
                                </g>
                            </g>
                            <g id="Group-3-Copy-2" transform="translate(50.000000, 0.000000)">
                                <g id="Group-2">
                                    <rect id="Rectangle-Copy-4" x="0" y="5.88835125" width="40" height="33.8605094" rx="5"></rect>
                                    <rect id="Rectangle-Copy-5" x="0" y="0" width="40" height="33.8605094" rx="5"></rect>
                                </g>
                            </g>
                            <g id="Group-3-Copy-4" transform="translate(100.000000, 0.000000)">
                                <g id="Group-2">
                                    <rect id="Rectangle-Copy-4" x="0" y="5.88835125" width="40" height="33.8605094" rx="5"></rect>
                                    <rect id="Rectangle-Copy-5" x="0" y="0" width="40" height="33.8605094" rx="5"></rect>
                                </g>
                            </g>
                        </g>
                    </g>
                    <g id="Group-4" transform="translate(144.000000, 9.000000)" fill="#343988" fill-rule="nonzero">
                        <g id="right-arrow">
                            <path d="M16.728275,7.55634146 L10.5889767,0.333414634 C10.4137261,0.127235772 10.1801508,0.0140650407 9.93109597,0.0140650407 C9.68176472,0.0140650407 9.44832764,0.127398374 9.27307707,0.333414634 L8.71567522,0.989349593 C8.54056286,1.19520325 8.44409212,1.4701626 8.44409212,1.76333333 C8.44409212,2.05634146 8.54056286,2.34056911 8.71567522,2.54642276 L12.2972551,6.76934959 L0.918406969,6.76934959 C0.4053706,6.76934959 0,7.24186992 0,7.84560976 L0,8.77292683 C0,9.37666667 0.4053706,9.89682927 0.918406969,9.89682927 L12.3378889,9.89682927 L8.71581343,14.1433333 C8.54070107,14.3495122 8.44423033,14.6169919 8.44423033,14.9101626 C8.44423033,15.2030081 8.54070107,15.4743902 8.71581343,15.6804065 L9.27321528,16.3342276 C9.44846585,16.5404065 9.68190293,16.6527642 9.93123418,16.6527642 C10.180289,16.6527642 10.4138643,16.5389431 10.5891149,16.3327642 L16.7284132,9.11 C16.9040784,8.90317073 17.0006874,8.62707317 17,8.33357724 C17.0005492,8.03910569 16.9040784,7.76284553 16.728275,7.55634146 Z" id="Path"></path>
                        </g>
                    </g>
                    <path d="M60.728275,16.5422764 L54.5889767,9.31934959 C54.4137261,9.11317073 54.1801508,9 53.931096,9 C53.6817647,9 53.4483276,9.11333333 53.2730771,9.31934959 L52.7156752,9.97528455 C52.5405629,10.1811382 52.4440921,10.4560976 52.4440921,10.7492683 C52.4440921,11.0422764 52.5405629,11.3265041 52.7156752,11.5323577 L56.2972551,15.7552846 L44.918407,15.7552846 C44.4053706,15.7552846 44,16.2278049 44,16.8315447 L44,17.7588618 C44,18.3626016 44.4053706,18.8827642 44.918407,18.8827642 L56.3378889,18.8827642 L52.7158134,23.1292683 C52.5407011,23.3354472 52.4442303,23.6029268 52.4442303,23.8960976 C52.4442303,24.1889431 52.5407011,24.4603252 52.7158134,24.6663415 L53.2732153,25.3201626 C53.4484659,25.5263415 53.6819029,25.6386992 53.9312342,25.6386992 C54.180289,25.6386992 54.4138643,25.524878 54.5891149,25.3186992 L60.7284132,18.095935 C60.9040784,17.8891057 61.0006874,17.6130081 61,17.3195122 C61.0005492,17.0250407 60.9040784,16.7487805 60.728275,16.5422764 Z" id="Path-Copy" fill="#343988" fill-rule="nonzero" transform="translate(52.500000, 17.319350) rotate(-180.000000) translate(-52.500000, -17.319350) "></path>
                    <path d="M110.728275,16.5422764 L104.588977,9.31934959 C104.413726,9.11317073 104.180151,9 103.931096,9 C103.681765,9 103.448328,9.11333333 103.273077,9.31934959 L102.715675,9.97528455 C102.540563,10.1811382 102.444092,10.4560976 102.444092,10.7492683 C102.444092,11.0422764 102.540563,11.3265041 102.715675,11.5323577 L106.297255,15.7552846 L94.918407,15.7552846 C94.4053706,15.7552846 94,16.2278049 94,16.8315447 L94,17.7588618 C94,18.3626016 94.4053706,18.8827642 94.918407,18.8827642 L106.337889,18.8827642 L102.715813,23.1292683 C102.540701,23.3354472 102.44423,23.6029268 102.44423,23.8960976 C102.44423,24.1889431 102.540701,24.4603252 102.715813,24.6663415 L103.273215,25.3201626 C103.448466,25.5263415 103.681903,25.6386992 103.931234,25.6386992 C104.180289,25.6386992 104.413864,25.524878 104.589115,25.3186992 L110.728413,18.095935 C110.904078,17.8891057 111.000687,17.6130081 111,17.3195122 C111.000549,17.0250407 110.904078,16.7487805 110.728275,16.5422764 Z" id="Path-Copy-2" fill="#343988" fill-rule="nonzero" transform="translate(102.500000, 17.319350) rotate(-90.000000) translate(-102.500000, -17.319350) "></path>
                </g>
            </g>
        </g>
    </g>
</svg>