<svg xmlns="http://www.w3.org/2000/svg" xmlns:xlink="http://www.w3.org/1999/xlink" viewBox="0 0 150.14 52.97"><defs><style>.cls-1,.cls-5{fill:#fff;}.cls-1,.cls-2{fill-rule:evenodd;}.cls-2{fill:#fefefe;}.cls-3{mask:url(#mask);}.cls-4{mask:url(#mask-2-2);}</style><mask id="mask" x="0" y="0.15" width="6.72" height="24.09" maskUnits="userSpaceOnUse"><g transform="translate(-0.31)"><g id="mask-2"><polygon id="path-1" class="cls-1" points="0.31 0.15 7.03 0.15 7.03 24.24 0.31 24.24 0.31 0.15"/></g></g></mask><mask id="mask-2-2" x="0" y="0" width="149.35" height="52.97" maskUnits="userSpaceOnUse"><g transform="translate(-0.31)"><g id="mask-4"><polygon id="path-3" class="cls-1" points="0.31 52.97 149.66 52.97 149.66 0 0.31 0 0.31 52.97"/></g></g></mask></defs><title>logo-think-pink-Europe</title><g id="Layer_1" data-name="Layer 1"><g id="Page-1"><g id="Desktop-HD-Copy-6"><g id="Group"><g id="LOGO"><g id="Group-29"><path id="Fill-1" class="cls-2" d="M95.3,42.9s-1.92,6.17-3,10.07a215.64,215.64,0,0,1-13-19.78C74,23.56,71.5,18.56,71.73,13.63s2.59-6.18,5.56-7.72c0,0-2.94,3.63,6.74,20.29,7.57,13,11.27,16.7,11.27,16.7" transform="translate(-0.31)"/><path id="Fill-3" class="cls-2" d="M63.35,42.9s1.92,6.17,3,10.07a218,218,0,0,0,13-19.78c5.41-9.63,7.86-14.63,7.64-19.56s-2.6-6.18-5.57-7.72c0,0,2.94,3.63-6.75,20.29-7.56,13-11.26,16.7-11.26,16.7" transform="translate(-0.31)"/><path id="Fill-5" class="cls-2" d="M79.36,5.72a10.22,10.22,0,0,1,2,.3c2.82,1.46,5.1,2.67,5.51,7C86.44,5.77,83.23.13,79.32.13S72.21,5.77,71.78,13c.41-4.33,2.69-5.54,5.51-7a11.54,11.54,0,0,1,2.07-.3" transform="translate(-0.31)"/><g id="Group-9"><g class="cls-3"><path id="Fill-7" class="cls-2" d="M.31.15H3.92v5.9H7v2.6h-3V20.07c0,1.46,1.29,1.46,2,1.46H7V24c-1.19.11-2.11.25-2.45.25-3.22,0-4.27-1.75-4.27-4Z" transform="translate(-0.31)"/></g></g><path id="Fill-10" class="cls-2" d="M25.21,24h-3.4V13.63c0-4.88-3.49-4.88-4-4.88s-4.23.55-4.23,4.31V24h-3.4V.05h3.4V9S14.9,5.8,18.15,5.8s7.06,1.76,7.06,7.47Z" transform="translate(-0.31)"/><path id="Fill-12" class="cls-2" d="M50.52,24h-3.4V13.63c0-4.88-3.49-4.88-4-4.88s-4.22.55-4.22,4.31V24h-3.4V7.12h3.4V9S40.21,5.8,43.45,5.8s7.07,1.76,7.07,7.47Z" transform="translate(-0.31)"/><path id="Fill-14" class="cls-2" d="M65,9.84a2.89,2.89,0,0,1,2.9-1.1V6.21a7,7,0,0,0-3.78.35C62.65,7.35,60.93,10,60,11.45a3.43,3.43,0,0,1-2,1.61h-1V.12H53.66V24h3.28V15.86c.9-.09,3.46-.22,4,1,.91,1.92,1.45,5.94,2.94,7s4,.33,4,.33V21.79s-1.14.57-2.24-1.44-1.55-5.41-2.33-6.11a3.43,3.43,0,0,0-1.66-.75,1,1,0,0,0,.21-.08c.88-.43,2-2.05,3.12-3.57" transform="translate(-0.31)"/><polygon id="Fill-16" class="cls-2" points="31.77 24.12 28.3 24.12 28.3 7.17 31.77 7.17 31.77 24.12"/><path id="Fill-18" class="cls-2" d="M32.34,2a2,2,0,1,1-2-2,2,2,0,0,1,2,2" transform="translate(-0.31)"/><path id="Fill-20" class="cls-2" d="M91.29,7.16h3.07V8.62h.08a6.58,6.58,0,0,1,5.78-3.12c5.15,0,8.07,4,8.07,9.16,0,4.39-1.93,9.55-8.52,9.55a5.92,5.92,0,0,1-5.15-2.46l-.07.7v9.2H91.29ZM99.7,21.54c3.56,0,5.22-2.35,5.22-6.39,0-2.35-.26-6.88-5.3-6.88-4.7,0-5.22,4.11-5.22,7.1,0,4.87,3.22,6.17,5.3,6.17Z" transform="translate(-0.31)"/><path id="Fill-22" class="cls-2" d="M132.25,24h-3.39V13.66c0-4.88-3.5-4.88-4-4.88s-4.23.55-4.23,4.31V24h-3.4V7.15h3.4v1.9s1.34-3.22,4.58-3.22,7.06,1.76,7.06,7.46Z" transform="translate(-0.31)"/><path id="Fill-24" class="cls-2" d="M146.76,9.86a2.9,2.9,0,0,1,2.9-1.09V6.24a7,7,0,0,0-3.78.35c-1.5.79-3.21,3.45-4.18,4.89a3.42,3.42,0,0,1-2,1.61h-1.05V.15h-3.28V24h3.28V15.89c.91-.09,3.47-.22,4,1,.92,1.92,1.45,5.94,2.95,7s4,.32,4,.32V21.81s-1.14.58-2.24-1.44-1.55-5.4-2.33-6.1a3.52,3.52,0,0,0-1.66-.75,1,1,0,0,0,.21-.08c.88-.44,2-2,3.12-3.58" transform="translate(-0.31)"/><g class="cls-4"><polygon id="Fill-26" class="cls-2" points="110.04 24.15 113.51 24.15 113.51 7.2 110.04 7.2 110.04 24.15"/></g><g class="cls-4"><path id="Fill-28" class="cls-2" d="M114.07,2a2,2,0,1,1-2-2,2,2,0,0,1,2,2" transform="translate(-0.31)"/></g></g></g></g></g></g><path class="cls-5" d="M96.87,32.76a5.57,5.57,0,0,1,.34-2,4.06,4.06,0,0,1,.9-1.45,3.51,3.51,0,0,1,1.29-.87,4.12,4.12,0,0,1,1.5-.29,3.36,3.36,0,0,1,2.73,1.12,5.08,5.08,0,0,1,1,3.39v.26a2.81,2.81,0,0,1,0,.3h-6a3.17,3.17,0,0,0,.8,2.09,2.92,2.92,0,0,0,2.17.71,6.11,6.11,0,0,0,1.4-.14,5.41,5.41,0,0,0,.86-.28l.22,1.32a4.51,4.51,0,0,1-1,.33,7.38,7.38,0,0,1-1.64.17,5.26,5.26,0,0,1-2-.35,3.64,3.64,0,0,1-1.38-1,4,4,0,0,1-.81-1.46A6.29,6.29,0,0,1,96.87,32.76Zm6.07-.87a2.66,2.66,0,0,0-.54-1.76,1.83,1.83,0,0,0-1.52-.68,2.12,2.12,0,0,0-1,.21,2.26,2.26,0,0,0-.71.55,2.74,2.74,0,0,0-.45.78,3.67,3.67,0,0,0-.21.9Z" transform="translate(-0.31)"/><path class="cls-5" d="M113.9,36.91c-.36.09-.84.18-1.44.29a12.49,12.49,0,0,1-2.06.15,4.38,4.38,0,0,1-1.72-.3,2.81,2.81,0,0,1-1.12-.84,3.38,3.38,0,0,1-.61-1.28,6.48,6.48,0,0,1-.19-1.64v-5h1.58V33a4,4,0,0,0,.51,2.31,2,2,0,0,0,1.72.7l.53,0,.51,0,.43,0,.28-.06V28.32h1.58Z" transform="translate(-0.31)"/><path class="cls-5" d="M119.88,28.14a3.94,3.94,0,0,1,.47,0l.52.07.47.08.31.08-.27,1.38a4,4,0,0,0-.62-.16,4.89,4.89,0,0,0-1.11-.1,3.71,3.71,0,0,0-.88.1l-.57.12v7.43h-1.58V28.7a10.6,10.6,0,0,1,1.39-.39A9.69,9.69,0,0,1,119.88,28.14Z" transform="translate(-0.31)"/><path class="cls-5" d="M131,32.74a5.71,5.71,0,0,1-.31,1.91,4.34,4.34,0,0,1-.86,1.46,3.75,3.75,0,0,1-1.32.94,4.13,4.13,0,0,1-1.66.33,4.18,4.18,0,0,1-1.67-.33,3.75,3.75,0,0,1-1.32-.94,4.49,4.49,0,0,1-.85-1.46,6,6,0,0,1,0-3.8,4.43,4.43,0,0,1,.85-1.47,3.78,3.78,0,0,1,1.32-.95,4.18,4.18,0,0,1,1.67-.33,4.13,4.13,0,0,1,1.66.33,3.78,3.78,0,0,1,1.32.95,4.29,4.29,0,0,1,.86,1.47A5.67,5.67,0,0,1,131,32.74Zm-1.65,0a3.88,3.88,0,0,0-.67-2.37,2.36,2.36,0,0,0-3.66,0,3.81,3.81,0,0,0-.67,2.37,3.77,3.77,0,0,0,.67,2.37,2.34,2.34,0,0,0,3.66,0A3.83,3.83,0,0,0,129.34,32.74Z" transform="translate(-0.31)"/><path class="cls-5" d="M141,32.76a6.36,6.36,0,0,1-.26,1.85,4.3,4.3,0,0,1-.78,1.47,3.58,3.58,0,0,1-1.25,1,4.08,4.08,0,0,1-1.69.34,4.44,4.44,0,0,1-2.23-.6v3.54h-1.58V28.59c.38-.09.84-.18,1.41-.29a10.13,10.13,0,0,1,1.94-.16,4.9,4.9,0,0,1,1.84.32,3.8,3.8,0,0,1,1.39.92,3.94,3.94,0,0,1,.89,1.45A5.58,5.58,0,0,1,141,32.76Zm-1.65,0a3.41,3.41,0,0,0-.77-2.38,2.62,2.62,0,0,0-2-.83,8.26,8.26,0,0,0-1.11.05,3.67,3.67,0,0,0-.64.12v5.57a3.36,3.36,0,0,0,.84.46,3.07,3.07,0,0,0,1.19.22,2.58,2.58,0,0,0,1.16-.24,2.27,2.27,0,0,0,.79-.68,2.77,2.77,0,0,0,.44-1A5.68,5.68,0,0,0,139.35,32.76Z" transform="translate(-0.31)"/><path class="cls-5" d="M142.73,32.76a5.79,5.79,0,0,1,.34-2,4.36,4.36,0,0,1,.9-1.45,3.63,3.63,0,0,1,1.3-.87,4,4,0,0,1,1.49-.29,3.4,3.4,0,0,1,2.74,1.12,5.14,5.14,0,0,1,.95,3.39v.26a2.66,2.66,0,0,1,0,.3h-6.05a3.27,3.27,0,0,0,.8,2.09,3,3,0,0,0,2.18.71,6.17,6.17,0,0,0,1.4-.14,5.79,5.79,0,0,0,.86-.28l.22,1.32a4.51,4.51,0,0,1-1,.33,7.45,7.45,0,0,1-1.64.17,5.26,5.26,0,0,1-2-.35,3.76,3.76,0,0,1-1.39-1,3.84,3.84,0,0,1-.8-1.46A6,6,0,0,1,142.73,32.76Zm6.07-.87a2.71,2.71,0,0,0-.53-1.76,1.85,1.85,0,0,0-1.53-.68,2.12,2.12,0,0,0-1,.21,2.22,2.22,0,0,0-.7.55,2.74,2.74,0,0,0-.45.78,3.67,3.67,0,0,0-.21.9Z" transform="translate(-0.31)"/></g></svg>