<?xml version="1.0" encoding="UTF-8"?>
<svg width="20px" height="20px" viewBox="0 0 20 20" version="1.1" xmlns="http://www.w3.org/2000/svg" xmlns:xlink="http://www.w3.org/1999/xlink">
    <!-- Generator: Sketch 61.2 (89653) - https://sketch.com -->
    <title>Path</title>
    <desc>Created with Sketch.</desc>
    <g id="Page-1" stroke="none" stroke-width="1" fill="none" fill-rule="evenodd">
        <g id="Group-20" transform="translate(-14.000000, -26.000000)" fill="#343988" fill-rule="nonzero">
            <g id="Group-7-Copy-6" transform="translate(0.000000, 12.000000)">
                <g id="right-arrow" transform="translate(14.400000, 14.594595)">
                    <path d="M18.8931106,8.64954826 L11.9593148,0.381651092 C11.7613848,0.145643491 11.4975821,0.0160998876 11.2162966,0.0160998876 C10.934699,0.0160998876 10.6710524,0.145829617 10.4731223,0.381651092 L9.84358613,1.13248284 C9.64581217,1.36811819 9.53685698,1.68285703 9.53685698,2.01844197 C9.53685698,2.35384078 9.64581217,2.6791888 9.84358613,2.91482415 L13.8886646,7.74869906 L1.03725964,7.74869906 C0.457830325,7.74869906 1.54079102e-12,8.28958083 1.54079102e-12,8.98066618 L1.54079102e-12,10.042142 C1.54079102e-12,10.7332273 0.457830325,11.328644 1.03725964,11.328644 L13.9345569,11.328644 L9.84374223,16.1895072 C9.64596827,16.4255148 9.53701308,16.7316918 9.53701308,17.0672767 C9.53701308,17.4024894 9.64596827,17.7131335 9.84374223,17.948955 L10.4732784,18.6973671 C10.6712085,18.9333747 10.9348551,19.0619877 11.2164527,19.0619877 C11.4977382,19.0619877 11.7615409,18.9316996 11.9594709,18.695692 L18.8932667,10.4279809 C19.091665,10.1912288 19.2007763,9.8751871 19.2,9.5392299 C19.2006202,9.20215596 19.091665,8.88592811 18.8931106,8.64954826 Z" id="Path" transform="translate(9.600000, 9.539044) rotate(-180.000000) translate(-9.600000, -9.539044) "></path>
                </g>
            </g>
        </g>
    </g>
</svg>