{
	"asset":{
		"version":"2.0",
		"generator":"Created using the official Cinema 4D glTF Exporter 1.000x290161"
	},
	"scenes":[{
		"nodes":[0,
		2,
		6,
		10,
		11,
		13,
		15,
		16,
		17,
		19]
	}],
	"nodes":[{
		"name":"Plane",
		"translation":[0.0,
		0.0,
		-382.0],
		"rotation":[0.0,
		0.0,
		0.0,
		-1.0],
		"scale":[1.0,
		1.0,
		1.0],
		"children":[1]
	},
	{
		"name":"Plane",
		"mesh":0
	},
	{
		"name":"L. Leg Group",
		"translation":[-35.5,
		159.11151123046876,
		-11.049395561218262],
		"rotation":[0.0,
		0.0,
		0.0,
		-1.0],
		"scale":[1.0,
		1.0,
		1.0],
		"children":[3]
	},
	{
		"name":"L. Leg SDS",
		"translation":[-35.5,
		-63.1236457824707,
		-46.04939651489258],
		"rotation":[0.0,
		0.0,
		0.0,
		-1.0],
		"scale":[1.0,
		1.0,
		1.0],
		"children":[4]
	},
	{
		"name":"L. leg",
		"translation":[106.85990142822266,
		-41.650001525878909,
		-1.5987211554602255e-14],
		"rotation":[0.0,
		-0.7071067690849304,
		0.0,
		0.7071067690849304],
		"scale":[1.0,
		1.0,
		1.0],
		"children":[5]
	},
	{
		"name":"L. leg",
		"translation":[0.0,
		0.0,
		0.0],
		"rotation":[0.0,
		-1.1102230246251566e-16,
		0.0,
		-1.0],
		"scale":[1.0,
		1.0,
		1.0],
		"mesh":1
	},
	{
		"name":"L. Leg Group",
		"translation":[-35.5,
		159.11151123046876,
		-11.049395561218262],
		"rotation":[0.0,
		0.0,
		0.0,
		-1.0],
		"scale":[1.0,
		1.0,
		1.0],
		"children":[7]
	},
	{
		"name":"L. Leg SDS",
		"translation":[-35.5,
		-63.1236457824707,
		-46.04939651489258],
		"rotation":[0.0,
		0.0,
		0.0,
		-1.0],
		"scale":[1.0,
		1.0,
		1.0],
		"children":[8]
	},
	{
		"name":"L. leg",
		"translation":[35.14009475708008,
		-41.650001525878909,
		-9.567930012188177e-15],
		"rotation":[0.7071067690849304,
		1.232595164407831e-32,
		0.7071067690849304,
		-8.659560603426554e-17],
		"scale":[1.0,
		1.0,
		1.0],
		"children":[9]
	},
	{
		"name":"L. leg",
		"translation":[0.0,
		0.0,
		0.0],
		"rotation":[1.8746996965264929e-32,
		1.2246468525851679e-16,
		-1.2246468525851679e-16,
		-1.0],
		"scale":[1.0,
		1.0,
		1.0],
		"mesh":2
	},
	{
		"name":"Mouth",
		"translation":[0.0,
		160.23516845703126,
		347.5974426269531],
		"rotation":[0.0,
		0.0,
		0.0,
		-1.0],
		"scale":[1.0,
		1.0,
		1.0],
		"mesh":3
	},
	{
		"name":"L. ARM",
		"translation":[68.28902435302735,
		203.23516845703126,
		0.0],
		"rotation":[0.0,
		0.0,
		0.0,
		-1.0],
		"scale":[1.0,
		1.0,
		1.0],
		"children":[12]
	},
	{
		"name":"L. ARM",
		"translation":[68.28902435302735,
		0.0,
		0.0],
		"rotation":[0.0,
		0.0,
		0.0,
		-1.0],
		"scale":[1.0,
		1.0,
		1.0],
		"mesh":4
	},
	{
		"name":"R. ARM",
		"translation":[-68.28902435302735,
		203.23516845703126,
		0.0],
		"rotation":[0.0,
		0.0,
		0.0,
		-1.0],
		"scale":[1.0,
		1.0,
		1.0],
		"children":[14]
	},
	{
		"name":"L. ARM",
		"translation":[-68.28902435302735,
		0.0,
		0.0],
		"rotation":[0.0,
		0.0,
		0.0,
		-1.0],
		"scale":[1.0,
		1.0,
		1.0],
		"mesh":5
	},
	{
		"name":"Sphere.1",
		"translation":[0.0,
		250.23516845703126,
		0.0],
		"rotation":[0.0,
		0.0,
		0.0,
		-1.0],
		"scale":[1.0,
		1.0,
		1.0],
		"mesh":6
	},
	{
		"name":"nipple",
		"translation":[0.0,
		302.73516845703127,
		0.0],
		"rotation":[0.0,
		0.0,
		0.0,
		-1.0],
		"scale":[1.0,
		1.0,
		1.0],
		"mesh":7
	},
	{
		"name":"Eyes",
		"translation":[0.0,
		203.23516845703126,
		0.0],
		"rotation":[0.0,
		0.0,
		0.0,
		-1.0],
		"scale":[1.0,
		1.0,
		1.0],
		"children":[18]
	},
	{
		"name":"eye",
		"translation":[21.248533248901368,
		24.0,
		92.0],
		"rotation":[0.0,
		0.0,
		0.0,
		-1.0],
		"scale":[1.0,
		1.0,
		1.0],
		"mesh":8
	},
	{
		"name":"Body",
		"translation":[0.20321740210056306,
		203.23516845703126,
		0.0],
		"rotation":[0.0,
		0.0,
		0.0,
		-1.0],
		"scale":[1.0,
		1.0,
		1.0],
		"children":[20]
	},
	{
		"name":"Sphere",
		"translation":[-0.20321740210056306,
		0.0,
		0.0],
		"rotation":[0.0,
		0.0,
		0.0,
		-1.0],
		"scale":[1.0,
		1.0,
		1.0],
		"mesh":9
	}],
	"meshes":[{
		"primitives":[{
			"attributes":{
				"POSITION":1,
				"NORMAL":2,
				"TEXCOORD_0":3
			},
			"indices":0,
			"material":0
		}]
	},
	{
		"primitives":[{
			"attributes":{
				"POSITION":5,
				"NORMAL":6,
				"TEXCOORD_0":7
			},
			"indices":4,
			"material":1
		}]
	},
	{
		"primitives":[{
			"attributes":{
				"POSITION":9,
				"NORMAL":10,
				"TEXCOORD_0":11
			},
			"indices":8,
			"material":1
		}]
	},
	{
		"primitives":[{
			"attributes":{
				"POSITION":13,
				"NORMAL":14,
				"TEXCOORD_0":15
			},
			"indices":12,
			"material":2
		}]
	},
	{
		"primitives":[{
			"attributes":{
				"POSITION":17,
				"NORMAL":18,
				"TEXCOORD_0":19
			},
			"indices":16,
			"material":1
		}]
	},
	{
		"primitives":[{
			"attributes":{
				"POSITION":21,
				"NORMAL":22,
				"TEXCOORD_0":23
			},
			"indices":20,
			"material":1
		}]
	},
	{
		"primitives":[{
			"attributes":{
				"POSITION":25,
				"NORMAL":26,
				"TEXCOORD_0":27
			},
			"indices":24,
			"material":3
		}]
	},
	{
		"primitives":[{
			"attributes":{
				"POSITION":29,
				"NORMAL":30,
				"TEXCOORD_0":31
			},
			"indices":28,
			"material":3
		}]
	},
	{
		"primitives":[{
			"attributes":{
				"POSITION":33,
				"NORMAL":34,
				"TEXCOORD_0":35
			},
			"indices":32,
			"material":2
		}]
	},
	{
		"primitives":[{
			"attributes":{
				"POSITION":37,
				"NORMAL":38,
				"TEXCOORD_0":39
			},
			"indices":36,
			"material":1
		}]
	}],
	"accessors":[{
		"bufferView":0,
		"type":"SCALAR",
		"componentType":5123,
		"count":89700,
		"byteOffset":0,
		"min":[0],
		"max":[15195]
	},
	{
		"bufferView":1,
		"type":"VEC3",
		"componentType":5126,
		"count":15196,
		"byteOffset":0,
		"min":[-2189.146728515625,
		-1.3667034999109273e-14,
		-105.15494537353516],
		"max":[2189.146728515625,
		1076.486572265625,
		1113.331787109375]
	},
	{
		"bufferView":1,
		"type":"VEC3",
		"componentType":5126,
		"count":15196,
		"byteOffset":12,
		"min":[0.0,
		0.0,
		-9.173632575351274e-16],
		"max":[0.0,
		1.0,
		1.0]
	},
	{
		"bufferView":1,
		"type":"VEC2",
		"componentType":5126,
		"count":15196,
		"byteOffset":24,
		"min":[0.0,
		5.960464477539063e-8],
		"max":[1.0,
		1.0]
	},
	{
		"bufferView":2,
		"type":"SCALAR",
		"componentType":5123,
		"count":2880,
		"byteOffset":0,
		"min":[0],
		"max":[613]
	},
	{
		"bufferView":3,
		"type":"VEC3",
		"componentType":5126,
		"count":614,
		"byteOffset":0,
		"min":[44.84608840942383,
		-15.693771362304688,
		-3.9104700088500978],
		"max":[75.05238342285156,
		64.90249633789063,
		13.867266654968262]
	},
	{
		"bufferView":3,
		"type":"VEC3",
		"componentType":5126,
		"count":614,
		"byteOffset":12,
		"min":[-0.9999933242797852,
		-0.9912211894989014,
		-1.0],
		"max":[0.999976634979248,
		0.9901342988014221,
		1.0]
	},
	{
		"bufferView":3,
		"type":"VEC2",
		"componentType":5126,
		"count":614,
		"byteOffset":24,
		"min":[0.0,
		0.005208333022892475],
		"max":[1.0,
		0.9947916269302368]
	},
	{
		"bufferView":4,
		"type":"SCALAR",
		"componentType":5123,
		"count":2880,
		"byteOffset":0,
		"min":[0],
		"max":[613]
	},
	{
		"bufferView":5,
		"type":"VEC3",
		"componentType":5126,
		"count":614,
		"byteOffset":0,
		"min":[44.84608840942383,
		-64.90249633789063,
		-3.912236213684082],
		"max":[75.05238342285156,
		15.693771362304688,
		13.867125511169434]
	},
	{
		"bufferView":5,
		"type":"VEC3",
		"componentType":5126,
		"count":614,
		"byteOffset":12,
		"min":[-0.9999933242797852,
		-0.9901342988014221,
		-1.0],
		"max":[0.999976634979248,
		0.9912211894989014,
		1.0]
	},
	{
		"bufferView":5,
		"type":"VEC2",
		"componentType":5126,
		"count":614,
		"byteOffset":24,
		"min":[0.0,
		0.005208333022892475],
		"max":[1.0,
		0.9947916269302368]
	},
	{
		"bufferView":6,
		"type":"SCALAR",
		"componentType":5123,
		"count":10464,
		"byteOffset":0,
		"min":[0],
		"max":[1884]
	},
	{
		"bufferView":7,
		"type":"VEC3",
		"componentType":5126,
		"count":1885,
		"byteOffset":0,
		"min":[-15.339125633239746,
		41.86581802368164,
		-251.47276306152345],
		"max":[15.49090576171875,
		52.823326110839847,
		-243.24929809570313]
	},
	{
		"bufferView":7,
		"type":"VEC3",
		"componentType":5126,
		"count":1885,
		"byteOffset":12,
		"min":[-0.9979652166366577,
		-0.9942232370376587,
		-0.9971690773963928],
		"max":[0.9987056851387024,
		0.9942905306816101,
		0.9932528138160706]
	},
	{
		"bufferView":7,
		"type":"VEC2",
		"componentType":5126,
		"count":1885,
		"byteOffset":24,
		"min":[0.0,
		0.0],
		"max":[1.0,
		1.0]
	},
	{
		"bufferView":8,
		"type":"SCALAR",
		"componentType":5123,
		"count":4032,
		"byteOffset":0,
		"min":[0],
		"max":[745]
	},
	{
		"bufferView":9,
		"type":"VEC3",
		"componentType":5126,
		"count":746,
		"byteOffset":0,
		"min":[-52.3740234375,
		-45.50872802734375,
		-10.0],
		"max":[17.276639938354493,
		27.247949600219728,
		10.0]
	},
	{
		"bufferView":9,
		"type":"VEC3",
		"componentType":5126,
		"count":746,
		"byteOffset":12,
		"min":[-0.9992141127586365,
		-0.9942330718040466,
		-1.0],
		"max":[0.9991551637649536,
		0.9997546076774597,
		1.0]
	},
	{
		"bufferView":9,
		"type":"VEC2",
		"componentType":5126,
		"count":746,
		"byteOffset":24,
		"min":[0.0,
		0.0],
		"max":[1.0,
		1.0]
	},
	{
		"bufferView":10,
		"type":"SCALAR",
		"componentType":5123,
		"count":4032,
		"byteOffset":0,
		"min":[0],
		"max":[745]
	},
	{
		"bufferView":11,
		"type":"VEC3",
		"componentType":5126,
		"count":746,
		"byteOffset":0,
		"min":[-17.276639938354493,
		-45.50872802734375,
		-10.0],
		"max":[52.3740234375,
		27.247949600219728,
		10.0]
	},
	{
		"bufferView":11,
		"type":"VEC3",
		"componentType":5126,
		"count":746,
		"byteOffset":12,
		"min":[-0.9991551637649536,
		-0.9942330718040466,
		-1.0],
		"max":[0.9992141127586365,
		0.9997546076774597,
		1.0]
	},
	{
		"bufferView":11,
		"type":"VEC2",
		"componentType":5126,
		"count":746,
		"byteOffset":24,
		"min":[0.0,
		0.0],
		"max":[1.0,
		1.0]
	},
	{
		"bufferView":12,
		"type":"SCALAR",
		"componentType":5123,
		"count":2520,
		"byteOffset":0,
		"min":[0],
		"max":[493]
	},
	{
		"bufferView":13,
		"type":"VEC3",
		"componentType":5126,
		"count":494,
		"byteOffset":0,
		"min":[-54.69870376586914,
		-55.0,
		-54.3990592956543],
		"max":[54.69870376586914,
		55.0,
		54.3990592956543]
	},
	{
		"bufferView":13,
		"type":"VEC3",
		"componentType":5126,
		"count":494,
		"byteOffset":12,
		"min":[-0.9945205450057983,
		-1.0,
		-0.9891121983528137],
		"max":[0.9945205450057983,
		1.0,
		0.9891121983528137]
	},
	{
		"bufferView":13,
		"type":"VEC2",
		"componentType":5126,
		"count":494,
		"byteOffset":24,
		"min":[0.0,
		0.0],
		"max":[1.0,
		1.0]
	},
	{
		"bufferView":14,
		"type":"SCALAR",
		"componentType":5123,
		"count":672,
		"byteOffset":0,
		"min":[0],
		"max":[150]
	},
	{
		"bufferView":15,
		"type":"VEC3",
		"componentType":5126,
		"count":151,
		"byteOffset":0,
		"min":[-8.811327934265137,
		-8.811327934265137,
		-8.811327934265137],
		"max":[8.811327934265137,
		8.811327934265137,
		8.811327934265137]
	},
	{
		"bufferView":15,
		"type":"VEC3",
		"componentType":5126,
		"count":151,
		"byteOffset":12,
		"min":[-0.9999999403953552,
		-1.0,
		-0.9999999403953552],
		"max":[0.9999999403953552,
		1.0,
		0.9999999403953552]
	},
	{
		"bufferView":15,
		"type":"VEC2",
		"componentType":5126,
		"count":151,
		"byteOffset":24,
		"min":[0.0,
		0.0],
		"max":[1.0,
		1.0]
	},
	{
		"bufferView":16,
		"type":"SCALAR",
		"componentType":5123,
		"count":1344,
		"byteOffset":0,
		"min":[0],
		"max":[301]
	},
	{
		"bufferView":17,
		"type":"VEC3",
		"componentType":5126,
		"count":302,
		"byteOffset":0,
		"min":[-50.81289291381836,
		-8.315829277038575,
		-8.315829277038575],
		"max":[8.315829277038575,
		8.315829277038575,
		8.315829277038575]
	},
	{
		"bufferView":17,
		"type":"VEC3",
		"componentType":5126,
		"count":302,
		"byteOffset":12,
		"min":[-1.0,
		-1.0,
		-0.9999999403953552],
		"max":[1.0,
		1.0,
		0.9999999403953552]
	},
	{
		"bufferView":17,
		"type":"VEC2",
		"componentType":5126,
		"count":302,
		"byteOffset":24,
		"min":[0.0,
		0.0],
		"max":[1.0,
		1.0]
	},
	{
		"bufferView":18,
		"type":"SCALAR",
		"componentType":5123,
		"count":74880,
		"byteOffset":0,
		"min":[0],
		"max":[12872]
	},
	{
		"bufferView":19,
		"type":"VEC3",
		"componentType":5126,
		"count":12873,
		"byteOffset":0,
		"min":[-99.23200988769531,
		-99.91888427734375,
		-99.23200988769531],
		"max":[99.23200988769531,
		99.91888427734375,
		99.23200988769531]
	},
	{
		"bufferView":19,
		"type":"VEC3",
		"componentType":5126,
		"count":12873,
		"byteOffset":12,
		"min":[-1.0,
		-1.0,
		-1.0],
		"max":[1.0,
		1.0,
		1.0]
	},
	{
		"bufferView":19,
		"type":"VEC2",
		"componentType":5126,
		"count":12873,
		"byteOffset":24,
		"min":[0.0,
		0.01562499813735485],
		"max":[1.0,
		0.9843748807907105]
	}],
	"bufferViews":[{
		"buffer":0,
		"byteOffset":0,
		"byteLength":179400,
		"target":34963
	},
	{
		"buffer":0,
		"byteOffset":179400,
		"byteLength":486272,
		"target":34962,
		"byteStride":32
	},
	{
		"buffer":1,
		"byteOffset":0,
		"byteLength":5760,
		"target":34963
	},
	{
		"buffer":1,
		"byteOffset":5760,
		"byteLength":19648,
		"target":34962,
		"byteStride":32
	},
	{
		"buffer":2,
		"byteOffset":0,
		"byteLength":5760,
		"target":34963
	},
	{
		"buffer":2,
		"byteOffset":5760,
		"byteLength":19648,
		"target":34962,
		"byteStride":32
	},
	{
		"buffer":3,
		"byteOffset":0,
		"byteLength":20928,
		"target":34963
	},
	{
		"buffer":3,
		"byteOffset":20928,
		"byteLength":60320,
		"target":34962,
		"byteStride":32
	},
	{
		"buffer":4,
		"byteOffset":0,
		"byteLength":8064,
		"target":34963
	},
	{
		"buffer":4,
		"byteOffset":8064,
		"byteLength":23872,
		"target":34962,
		"byteStride":32
	},
	{
		"buffer":5,
		"byteOffset":0,
		"byteLength":8064,
		"target":34963
	},
	{
		"buffer":5,
		"byteOffset":8064,
		"byteLength":23872,
		"target":34962,
		"byteStride":32
	},
	{
		"buffer":6,
		"byteOffset":0,
		"byteLength":5040,
		"target":34963
	},
	{
		"buffer":6,
		"byteOffset":5040,
		"byteLength":15808,
		"target":34962,
		"byteStride":32
	},
	{
		"buffer":7,
		"byteOffset":0,
		"byteLength":1344,
		"target":34963
	},
	{
		"buffer":7,
		"byteOffset":1344,
		"byteLength":4832,
		"target":34962,
		"byteStride":32
	},
	{
		"buffer":8,
		"byteOffset":0,
		"byteLength":2688,
		"target":34963
	},
	{
		"buffer":8,
		"byteOffset":2688,
		"byteLength":9664,
		"target":34962,
		"byteStride":32
	},
	{
		"buffer":9,
		"byteOffset":0,
		"byteLength":149760,
		"target":34963
	},
	{
		"buffer":9,
		"byteOffset":149760,
		"byteLength":411936,
		"target":34962,
		"byteStride":32
	}],
	"buffers":[{
		"uri":"data:application/octet-stream;base64,",
		"byteLength":665672
	},
	{
		"uri":"data:application/octet-stream;base64,",
		"byteLength":25408
	},
	{
		"uri":"data:application/octet-stream;base64,",
		"byteLength":25408
	},
	{
		"uri":"data:application/octet-stream;base64,",
		"byteLength":81248
	},
	{
		"uri":"data:application/octet-stream;base64,",
		"byteLength":31936
	},
	{
		"uri":"data:application/octet-stream;base64,",
		"byteLength":31936
	},
	{
		"uri":"data:application/octet-stream;base64,",
		"byteLength":20848
	},
	{
		"uri":"data:application/octet-stream;base64,",
		"byteLength":6176
	},
	{
		"uri":"data:application/octet-stream;base64,",
		"byteLength":12352
	},
	{
		"uri":"data:application/octet-stream;base64,",
		"byteLength":561696
	}],
	"materials":[{
		"emissiveFactor":[0.0,
		0.0,
		0.0],
		"pbrMetallicRoughness":{
			"baseColorFactor":[1.0,
			0.683800000000004,
			0.6599999999999999,
			1.0],
			"metallicFactor":1.0,
			"roughnessFactor":1.0
		},
		"alphaMode":"OPAQUE",
		"doubleSided":false,
		"name":"floor"
	},
	{
		"emissiveFactor":[0.0,
		0.0,
		0.0],
		"pbrMetallicRoughness":{
			"baseColorFactor":[0.984313725490196,
			0.4941176470588235,
			0.5882352941176472,
			1.0],
			"metallicFactor":0.0,
			"roughnessFactor":0.5
		},
		"alphaMode":"OPAQUE",
		"doubleSided":false,
		"name":"Mat"
	},
	{
		"emissiveFactor":[0.0,
		0.0,
		0.0],
		"pbrMetallicRoughness":{
			"baseColorFactor":[0.0,
			0.0,
			0.0,
			1.0],
			"metallicFactor":0.0,
			"roughnessFactor":0.5
		},
		"alphaMode":"OPAQUE",
		"doubleSided":false,
		"name":"Mat.3"
	},
	{
		"emissiveFactor":[0.0,
		0.0,
		0.0],
		"pbrMetallicRoughness":{
			"baseColorFactor":[1.0,
			0.7607843137254902,
			0.6745098039215687,
			1.0],
			"metallicFactor":0.0,
			"roughnessFactor":0.5
		},
		"alphaMode":"OPAQUE",
		"doubleSided":false,
		"name":"Mat.1"
	}]
}